HIERARCHY
ROOT Hips
{
	OFFSET 0.000000 83.214638 0.000000
	CHANNELS 6 Xposition Yposition Zposition Xrotation Yrotation Zrotation
	JOINT Pelvis
	{
		OFFSET 0.000000 0.000000 0.000000
		CHANNELS 3 Xrotation Yrotation Zrotation
		JOINT LeftUpLeg
		{
			OFFSET 8.479700 -4.795502 -0.379100
			CHANNELS 3 Xrotation Yrotation Zrotation
			JOINT LeftLeg
			{
				OFFSET 0.024144 -32.555107 0.112900
				CHANNELS 3 Xrotation Yrotation Zrotation
				JOINT LeftFoot
				{
					OFFSET -0.024144 -32.638630 -3.012600
					CHANNELS 3 Xrotation Yrotation Zrotation
					JOINT LeftToeBase
					{
						OFFSET 0.970200 -13.225400 11.864200
						CHANNELS 3 Xrotation Yrotation Zrotation
						End Site
						{
							OFFSET 0.000000 12.319262 0.000000
						}
					}
					JOINT LFootTongue
					{
						OFFSET 1.142400 -1.059800 6.665200
						CHANNELS 3 Xrotation Yrotation Zrotation
						End Site
						{
							OFFSET 0.000000 12.319262 0.000000
						}
					}
				}
				JOINT LeftPantLeg
				{
					OFFSET 0.918482 -16.533964 -2.284700
					CHANNELS 3 Xrotation Yrotation Zrotation
					End Site
					{
						OFFSET 0.350399 24.744368 0.000000
					}
				}
			}
		}
		JOINT RightUpLeg
		{
			OFFSET -8.479700 -4.795502 -0.379100
			CHANNELS 3 Xrotation Yrotation Zrotation
			JOINT RightLeg
			{
				OFFSET -0.023144 -32.555092 0.112900
				CHANNELS 3 Xrotation Yrotation Zrotation
				JOINT RightFoot
				{
					OFFSET 0.023144 -32.638641 -3.012700
					CHANNELS 3 Xrotation Yrotation Zrotation
					JOINT RightToeBase
					{
						OFFSET -0.970200 -13.225400 11.864200
						CHANNELS 3 Xrotation Yrotation Zrotation
						End Site
						{
							OFFSET 0.000000 12.319244 0.000000
						}
					}
					JOINT RFootTongue
					{
						OFFSET -1.142200 -1.059800 6.665200
						CHANNELS 3 Xrotation Yrotation Zrotation
						End Site
						{
							OFFSET 0.000000 12.319243 0.000000
						}
					}
				}
				JOINT RightPantLeg
				{
					OFFSET -0.919482 -16.533978 -2.284800
					CHANNELS 3 Xrotation Yrotation Zrotation
					End Site
					{
						OFFSET -0.350400 24.744419 0.000000
					}
				}
			}
		}
	}
	JOINT Spine
	{
		OFFSET 0.000000 7.722000 1.166200
		CHANNELS 3 Xrotation Yrotation Zrotation
		JOINT Spine1
		{
			OFFSET 0.000000 12.024101 0.248800
			CHANNELS 3 Xrotation Yrotation Zrotation
			JOINT Spine2
			{
				OFFSET 0.000000 11.502998 -0.491200
				CHANNELS 3 Xrotation Yrotation Zrotation
				JOINT Neck
				{
					OFFSET 0.000000 18.430702 -3.123100
					CHANNELS 3 Xrotation Yrotation Zrotation
					JOINT Head
					{
						OFFSET 0.000000 9.051102 1.034000
						CHANNELS 3 Xrotation Yrotation Zrotation
						JOINT HairB
						{
							OFFSET 0.208400 24.786102 24.822300
							CHANNELS 3 Xrotation Yrotation Zrotation
							End Site
							{
								OFFSET 0.000000 32.263779 0.000000
							}
						}
						JOINT HairA
						{
							OFFSET -7.081100 24.428299 23.196600
							CHANNELS 3 Xrotation Yrotation Zrotation
							End Site
							{
								OFFSET 0.000000 32.263779 0.000000
							}
						}
						JOINT Hat
						{
							OFFSET 16.728800 15.048294 -15.439601
							CHANNELS 3 Xrotation Yrotation Zrotation
							End Site
							{
								OFFSET 0.000000 32.263779 0.000000
							}
						}
					}
				}
				JOINT LeftShoulder
				{
					OFFSET 6.197800 13.665199 -4.064700
					CHANNELS 3 Xrotation Yrotation Zrotation
					JOINT LeftArm
					{
						OFFSET 7.778100 -0.187103 -1.709300
						CHANNELS 3 Xrotation Yrotation Zrotation
						JOINT LeftForeArm
						{
							OFFSET 22.049376 0.000000 0.000000
							CHANNELS 3 Xrotation Yrotation Zrotation
							JOINT LeftHand
							{
								OFFSET 23.009392 0.000000 0.000000
								CHANNELS 3 Xrotation Yrotation Zrotation
								JOINT LeftHandThumb1
								{
									OFFSET 3.507191 -2.063065 3.133727
									CHANNELS 3 Xrotation Yrotation Zrotation
									JOINT LeftHandThumb2
									{
										OFFSET 3.101337 -1.790558 1.790558
										CHANNELS 3 Xrotation Yrotation Zrotation
										JOINT LeftHandThumb3
										{
											OFFSET 3.058640 -1.765907 1.765906
											CHANNELS 3 Xrotation Yrotation Zrotation
											End Site
											{
												OFFSET -0.415260 3.926476 -0.049563
											}
										}
									}
								}
								JOINT LeftHandIndex1
								{
									OFFSET 11.334419 -0.901459 3.706815
									CHANNELS 3 Xrotation Yrotation Zrotation
									JOINT LeftHandIndex2
									{
										OFFSET 3.283112 0.000000 0.000000
										CHANNELS 3 Xrotation Yrotation Zrotation
										JOINT LeftHandIndex3
										{
											OFFSET 3.323853 0.000000 0.000000
											CHANNELS 3 Xrotation Yrotation Zrotation
											End Site
											{
												OFFSET -1.135597 3.097809 0.402452
											}
										}
									}
								}
								JOINT LeftHandMiddle1
								{
									OFFSET 11.335861 0.000000 0.000000
									CHANNELS 3 Xrotation Yrotation Zrotation
									JOINT LeftHandMiddle2
									{
										OFFSET 3.410492 0.000000 0.000000
										CHANNELS 3 Xrotation Yrotation Zrotation
										JOINT LeftHandMiddle3
										{
											OFFSET 3.312172 0.000000 0.000000
											CHANNELS 3 Xrotation Yrotation Zrotation
											End Site
											{
												OFFSET -1.150200 3.080154 0.400270
											}
										}
									}
								}
								JOINT LeftHandRing1
								{
									OFFSET 11.514786 -0.013176 -3.003090
									CHANNELS 3 Xrotation Yrotation Zrotation
									JOINT LeftHandRing2
									{
										OFFSET 3.053307 0.000000 0.000000
										CHANNELS 3 Xrotation Yrotation Zrotation
										JOINT LeftHandRing3
										{
											OFFSET 3.295807 0.000000 0.000000
											CHANNELS 3 Xrotation Yrotation Zrotation
											End Site
											{
												OFFSET -1.281006 3.013344 0.375733
											}
										}
									}
								}
								JOINT LeftHandPinky1
								{
									OFFSET 10.518692 -0.960396 -5.730441
									CHANNELS 3 Xrotation Yrotation Zrotation
									JOINT LeftHandPinky2
									{
										OFFSET 2.861649 0.000000 0.000000
										CHANNELS 3 Xrotation Yrotation Zrotation
										JOINT LeftHandPinky3
										{
											OFFSET 2.863380 0.000000 0.000000
											CHANNELS 3 Xrotation Yrotation Zrotation
											End Site
											{
												OFFSET -0.843597 2.711159 0.369971
											}
										}
									}
								}
							}
							JOINT LSleeve
							{
								OFFSET 6.676277 -0.344902 -1.011730
								CHANNELS 3 Xrotation Yrotation Zrotation
								End Site
								{
									OFFSET 0.000000 14.885353 0.000000
								}
							}
						}
					}
				}
				JOINT RightShoulder
				{
					OFFSET -6.197800 13.665199 -4.064700
					CHANNELS 3 Xrotation Yrotation Zrotation
					JOINT RightArm
					{
						OFFSET -7.778100 -0.187103 -1.709300
						CHANNELS 3 Xrotation Yrotation Zrotation
						JOINT RightForeArm
						{
							OFFSET -22.049376 0.000000 0.000000
							CHANNELS 3 Xrotation Yrotation Zrotation
							JOINT RightHand
							{
								OFFSET -23.009392 0.000000 0.000000
								CHANNELS 3 Xrotation Yrotation Zrotation
								JOINT RightHandThumb1
								{
									OFFSET -3.507191 -2.063065 3.133727
									CHANNELS 3 Xrotation Yrotation Zrotation
									JOINT RightHandThumb2
									{
										OFFSET -3.101337 -1.790558 1.790558
										CHANNELS 3 Xrotation Yrotation Zrotation
										JOINT RightHandThumb3
										{
											OFFSET -3.058640 -1.765907 1.765906
											CHANNELS 3 Xrotation Yrotation Zrotation
											End Site
											{
												OFFSET 0.415260 3.926476 -0.049563
											}
										}
									}
								}
								JOINT RightHandIndex1
								{
									OFFSET -11.334419 -0.901459 3.706815
									CHANNELS 3 Xrotation Yrotation Zrotation
									JOINT RightHandIndex2
									{
										OFFSET -3.283112 0.000000 0.000000
										CHANNELS 3 Xrotation Yrotation Zrotation
										JOINT RightHandIndex3
										{
											OFFSET -3.323853 0.000000 0.000000
											CHANNELS 3 Xrotation Yrotation Zrotation
											End Site
											{
												OFFSET 1.135597 3.097809 0.402452
											}
										}
									}
								}
								JOINT RightHandMiddle1
								{
									OFFSET -11.335861 0.000000 0.000000
									CHANNELS 3 Xrotation Yrotation Zrotation
									JOINT RightHandMiddle2
									{
										OFFSET -3.410492 0.000000 0.000000
										CHANNELS 3 Xrotation Yrotation Zrotation
										JOINT RightHandMiddle3
										{
											OFFSET -3.312172 0.000000 0.000000
											CHANNELS 3 Xrotation Yrotation Zrotation
											End Site
											{
												OFFSET 1.150200 3.080154 0.400270
											}
										}
									}
								}
								JOINT RightHandRing1
								{
									OFFSET -11.514786 -0.013176 -3.003090
									CHANNELS 3 Xrotation Yrotation Zrotation
									JOINT RightHandRing2
									{
										OFFSET -3.053307 0.000000 0.000000
										CHANNELS 3 Xrotation Yrotation Zrotation
										JOINT RightHandRing3
										{
											OFFSET -3.295807 0.000000 0.000000
											CHANNELS 3 Xrotation Yrotation Zrotation
											End Site
											{
												OFFSET 1.281006 3.013344 0.375733
											}
										}
									}
								}
								JOINT RightHandPinky1
								{
									OFFSET -10.518692 -0.960396 -5.730441
									CHANNELS 3 Xrotation Yrotation Zrotation
									JOINT RightHandPinky2
									{
										OFFSET -2.861649 0.000000 0.000000
										CHANNELS 3 Xrotation Yrotation Zrotation
										JOINT RightHandPinky3
										{
											OFFSET -2.863380 0.000000 0.000000
											CHANNELS 3 Xrotation Yrotation Zrotation
											End Site
											{
												OFFSET 0.843597 2.711159 0.369971
											}
										}
									}
								}
							}
							JOINT RSleeve
							{
								OFFSET -6.676277 -0.344902 -1.011730
								CHANNELS 3 Xrotation Yrotation Zrotation
								End Site
								{
									OFFSET 0.000000 14.885353 0.000000
								}
							}
						}
					}
				}
				JOINT Backpack
				{
					OFFSET 0.000000 -2.471497 36.677502
					CHANNELS 3 Xrotation Yrotation Zrotation
					End Site
					{
						OFFSET 0.000000 20.427315 0.000000
					}
				}
				JOINT Hood
				{
					OFFSET 0.000000 18.754097 -10.431000
					CHANNELS 3 Xrotation Yrotation Zrotation
					JOINT Hood1
					{
						OFFSET 0.000000 -5.011002 -7.685901
						CHANNELS 3 Xrotation Yrotation Zrotation
						End Site
						{
							OFFSET 0.000000 9.175140 0.000000
						}
					}
				}
				JOINT LHoodieString
				{
					OFFSET 5.250500 16.397697 3.089900
					CHANNELS 3 Xrotation Yrotation Zrotation
					JOINT LHoodieString1
					{
						OFFSET 0.257700 -6.364304 3.694600
						CHANNELS 3 Xrotation Yrotation Zrotation
						JOINT LHoodieString2
						{
							OFFSET 0.000000 -9.643799 2.679100
							CHANNELS 3 Xrotation Yrotation Zrotation
							End Site
							{
								OFFSET 0.000000 10.009018 0.000000
							}
						}
					}
				}
				JOINT RHoodieString
				{
					OFFSET -5.250500 16.397697 3.089900
					CHANNELS 3 Xrotation Yrotation Zrotation
					JOINT RHoodieString1
					{
						OFFSET -0.257700 -6.364304 3.694600
						CHANNELS 3 Xrotation Yrotation Zrotation
						JOINT RHoodieString2
						{
							OFFSET 0.000000 -9.643799 2.679100
							CHANNELS 3 Xrotation Yrotation Zrotation
							End Site
							{
								OFFSET 0.000000 10.009018 0.000000
							}
						}
					}
				}
			}
			JOINT LBackpack_Strap
			{
				OFFSET 15.223200 -7.719803 -6.610900
				CHANNELS 3 Xrotation Yrotation Zrotation
				End Site
				{
					OFFSET 0.000000 16.040596 0.000000
				}
			}
			JOINT RBackpack_Strap
			{
				OFFSET -15.223000 -7.719803 -6.610900
				CHANNELS 3 Xrotation Yrotation Zrotation
				End Site
				{
					OFFSET 0.000000 16.040596 0.000000
				}
			}
		}
	}
	JOINT BoyFacialAnim_Joint
	{
		OFFSET 1.000000 -82.208099 -1.550900
		CHANNELS 3 Xrotation Yrotation Zrotation
		End Site
		{
			OFFSET 0.000000 30.012791 0.000000
		}
	}
}
MOTION
Frames: 4
Frame Time: 0.033333
0.112762 82.451065 -0.005633 -3.740699 2.270884 -3.018490 -0.000000 0.000000 -0.000000 -11.794264 14.473459 10.861223 13.105653 1.996017 4.177058 1.435855 0.535994 -7.636417 -0.000000 -0.000001 0.000000 -0.000000 -0.000001 -0.000000 0.000000 0.000000 -0.000000 1.331012 -10.339553 3.344537 5.907652 -9.741994 -3.276658 -2.955362 -1.630711 3.121165 0.000000 -0.000000 0.000000 0.000000 -0.000000 0.000000 -0.000000 -0.000001 0.000000 3.303641 1.533236 2.481848 1.151890 0.339456 1.552798 1.126015 0.361543 1.555886 5.626311 -0.078964 0.454685 -7.563338 1.375723 -0.080567 -0.000000 0.000000 -0.000000 -0.000000 0.000000 -0.000000 -0.000000 0.000000 -0.000000 1.049451 -17.442070 -12.319431 3.916262 -19.989245 -69.765232 0.000002 -1.459369 -0.000012 -33.230393 -1.364832 -6.186607 -0.663005 2.160314 4.832508 11.853580 25.421597 17.058297 0.000002 -0.000002 0.000001 0.019862 -0.969579 -7.593516 0.267871 1.752897 -17.375725 0.000001 0.000001 -0.000003 -0.076312 2.665780 -15.696847 0.268784 1.755807 -17.405528 0.000001 -0.000001 -0.000000 0.136909 3.641769 -21.133543 0.386620 2.094790 -20.911891 -0.000000 0.000000 -0.000000 0.927731 5.555913 -27.128033 0.268792 1.755845 -17.405887 -0.000001 -0.000000 0.000003 -0.000002 -0.000000 0.000001 1.203183 15.343656 14.705969 13.158874 27.555116 58.785157 -0.000005 6.693728 0.000004 -20.179085 -0.514080 6.782793 -1.665249 -0.174466 -4.219024 12.710961 -29.825332 -16.130938 -0.000001 -0.000000 0.000001 0.038567 1.262299 6.823722 0.213716 -1.396036 17.407043 -0.000001 -0.000002 0.000001 -0.136224 -2.205097 14.998906 0.214448 -1.398356 17.436867 0.000001 0.000001 -0.000000 0.030611 -3.075758 20.451026 0.308452 -1.668283 20.948554 0.000006 -0.000002 -0.000004 0.748874 -4.885233 26.473774 0.214459 -1.398378 17.437239 0.000001 -0.000001 0.000002 0.000000 -0.000000 -0.000000 0.000000 -0.000000 0.000000 0.000000 -0.000000 0.000000 0.000000 -0.000000 0.000000 0.000000 -0.000000 0.000000 0.000000 -0.000000 0.000000 -0.000000 -0.000000 0.000000 0.000000 -0.000000 0.000000 0.000000 -0.000000 0.000000 -0.000000 -0.000000 0.000000 -0.000000 -0.000000 -0.000000 -0.000000 -0.000000 -0.000000 -0.000000 0.000000 -0.000000 
0.107806 82.450706 0.012604 -3.726042 2.251512 -3.010568 0.000000 0.000000 0.000000 -11.801090 14.473992 10.863890 13.125303 2.018537 4.172358 1.419122 0.535288 -7.644395 0.000000 0.000001 -0.000000 0.000000 0.000001 -0.000000 -0.000000 0.000002 -0.000000 1.315301 -10.343573 3.330957 5.931012 -9.753491 -3.268596 -2.979862 -1.602452 3.121224 -0.000000 0.000000 0.000000 -0.000000 0.000000 0.000000 0.000000 -0.000001 0.000000 3.303582 1.530856 2.482952 1.151685 0.335925 1.556702 1.125846 0.358031 1.559753 5.657729 -0.028752 0.203129 -7.438539 1.698921 -0.676236 -0.000000 0.000001 0.000000 -0.000000 0.000001 0.000000 -0.000000 0.000001 0.000000 1.045162 -17.432801 -12.350008 3.890446 -19.927094 -69.714149 0.000003 -1.452159 -0.000003 -33.269305 -1.410750 -6.143500 -0.642601 2.199138 4.840129 11.847106 25.419253 17.078854 -0.000000 -0.000001 0.000000 0.013242 -0.978227 -7.631876 0.267700 1.752335 -17.370004 0.000000 0.000000 -0.000002 -0.074927 2.674303 -15.738480 0.268759 1.755726 -17.404688 0.000001 -0.000000 0.000000 0.143143 3.659419 -21.169174 0.387042 2.095885 -20.923378 -0.000001 0.000000 -0.000004 0.927061 5.554679 -27.161473 0.267804 1.752685 -17.373548 -0.000001 0.000000 0.000002 0.000004 0.000000 -0.000000 1.204770 15.326439 14.697889 13.173656 27.617332 58.769967 -0.000001 6.732266 -0.000005 -20.221352 -0.503392 6.795339 -1.671640 -0.202316 -4.224889 12.705929 -29.823700 -16.145147 -0.000000 0.000001 0.000001 0.037274 1.249790 6.880623 0.214000 -1.396890 17.418113 -0.000002 0.000001 0.000002 -0.137375 -2.205530 15.051806 0.214417 -1.398227 17.435321 0.000000 -0.000000 -0.000000 0.027926 -3.070429 20.492611 0.309037 -1.669830 20.969029 -0.000001 -0.000001 0.000000 0.752135 -4.890922 26.542450 0.214437 -1.398313 17.436276 0.000001 0.000000 0.000002 0.000001 0.000001 -0.000001 -0.000000 -0.000000 0.000000 -0.000000 -0.000000 0.000000 -0.000000 -0.000000 0.000000 -0.000000 -0.000000 0.000000 -0.000000 -0.000000 0.000000 -0.000000 -0.000000 0.000000 -0.000000 -0.000000 0.000000 -0.000000 -0.000000 0.000000 -0.000000 -0.000000 0.000000 0.000000 0.000000 -0.000000 0.000000 0.000000 -0.000000 0.000000 0.000000 0.000000 
0.100628 82.449158 0.030907 -3.703310 2.230325 -3.005593 0.000000 -0.000000 0.000000 -11.820390 14.472865 10.872333 13.151421 2.040489 4.166840 1.398545 0.534387 -7.654641 -0.000000 0.000001 -0.000000 -0.000000 0.000001 -0.000000 -0.000000 0.000001 -0.000000 1.286151 -10.346172 3.321470 5.965993 -9.765198 -3.261062 -3.010410 -1.579018 3.120410 0.000000 0.000000 0.000000 0.000000 0.000000 0.000000 -0.000001 -0.000001 -0.000000 3.304116 1.527360 2.481150 1.152294 0.330917 1.557309 1.126509 0.353109 1.560303 5.674662 0.023830 -0.081169 -7.266076 2.013750 -1.283537 0.000000 -0.000000 0.000000 0.000000 -0.000000 0.000000 0.000000 -0.000000 0.000000 1.042088 -17.411616 -12.368043 3.873889 -19.897335 -69.651346 -0.000013 -1.449682 -0.000003 -33.297920 -1.438763 -6.111451 -0.650149 2.190285 4.841137 11.844596 25.418341 17.086821 0.000001 -0.000002 0.000003 0.009497 -0.994125 -7.612975 0.267587 1.751986 -17.366415 -0.000000 0.000001 -0.000002 -0.074010 2.675050 -15.708771 0.268830 1.755948 -17.407010 0.000002 0.000000 -0.000005 0.143848 3.660125 -21.142536 0.387241 2.096411 -20.928861 0.000001 -0.000002 -0.000002 0.923792 5.549469 -27.127003 0.266818 1.749525 -17.341213 -0.000000 0.000001 -0.000007 0.000001 -0.000000 -0.000000 1.210081 15.325638 14.668861 13.170790 27.680716 58.785833 0.000002 6.769838 -0.000004 -20.278024 -0.488981 6.797248 -1.697540 -0.214347 -4.250636 12.713244 -29.826067 -16.124489 0.000005 0.000002 0.000004 0.037705 1.256136 6.858719 0.212737 -1.392864 17.366255 -0.000006 0.000001 0.000004 -0.138807 -2.196609 15.012136 0.214014 -1.396978 17.419245 -0.000000 -0.000001 -0.000000 0.023421 -3.057171 20.467114 0.308578 -1.668650 20.953398 -0.000002 0.000002 0.000002 0.751191 -4.890563 26.492190 0.214593 -1.398792 17.442269 -0.000000 -0.000000 -0.000002 -0.000003 -0.000000 0.000001 0.000000 0.000001 -0.000000 0.000000 0.000001 -0.000000 0.000000 0.000001 -0.000000 0.000000 0.000001 -0.000000 0.000000 0.000001 -0.000000 -0.000000 0.000000 0.000000 0.000000 0.000001 -0.000000 0.000000 0.000001 -0.000000 -0.000000 0.000000 0.000000 0.000000 0.000000 -0.000000 0.000000 0.000000 -0.000000 0.000000 -0.000000 0.000000 
0.091116 82.447243 0.050297 -3.672057 2.207238 -3.003932 0.000000 0.000000 -0.000000 -11.848507 14.467633 10.886812 13.177687 2.067045 4.158656 1.377060 0.533374 -7.665260 0.000000 0.000003 0.000000 0.000000 0.000003 0.000000 0.000000 -0.000001 -0.000000 1.248727 -10.349335 3.317283 6.001024 -9.772953 -3.254731 -3.041076 -1.556730 3.118156 -0.000000 -0.000000 0.000000 -0.000000 -0.000000 0.000000 0.000000 -0.000001 0.000000 3.302753 1.522008 2.474972 1.150639 0.323530 1.552334 1.124945 0.345909 1.555228 5.678226 0.085560 -0.404000 -7.046704 2.351281 -1.905882 0.000000 -0.000000 -0.000000 0.000000 -0.000000 -0.000000 0.000000 -0.000000 -0.000000 1.041006 -17.379032 -12.367780 3.878878 -19.914327 -69.576931 0.000001 -1.453645 0.000019 -33.305761 -1.440919 -6.110024 -0.656049 2.163114 4.832413 11.844358 25.418260 17.087578 0.000000 0.000002 -0.000001 0.009400 -1.008086 -7.562835 0.267498 1.751708 -17.363555 0.000000 0.000000 -0.000002 -0.073107 2.674034 -15.658982 0.268943 1.756316 -17.410736 0.000002 0.000000 -0.000005 0.143024 3.655935 -21.093815 0.387204 2.096312 -20.927855 -0.000001 -0.000001 -0.000001 0.920182 5.543712 -27.079448 0.266076 1.747158 -17.316997 -0.000001 0.000000 0.000002 -0.000002 0.000000 0.000001 1.220943 15.337087 14.609042 13.152303 27.758497 58.839573 -0.000004 6.799027 -0.000024 -20.332326 -0.477144 6.805380 -1.716752 -0.192509 -4.268281 12.727980 -29.830814 -16.082987 -0.000002 -0.000000 0.000001 0.038767 1.275372 6.799194 0.211871 -1.390123 17.331011 -0.000001 0.000001 0.000004 -0.137970 -2.191670 14.922432 0.213875 -1.396500 17.413036 0.000000 0.000000 -0.000000 0.022454 -3.051429 20.397913 0.307737 -1.666474 20.924730 0.000002 0.000001 -0.000001 0.747929 -4.887606 26.379241 0.214622 -1.398908 17.443945 -0.000000 -0.000000 0.000002 -0.000001 -0.000000 -0.000000 0.000000 0.000000 -0.000000 0.000000 0.000000 -0.000000 0.000000 0.000000 -0.000000 0.000000 0.000000 -0.000000 0.000000 0.000000 -0.000000 -0.000000 -0.000000 0.000000 0.000000 0.000000 -0.000000 0.000000 0.000000 -0.000000 -0.000000 -0.000000 0.000000 0.000000 -0.000000 -0.000000 0.000000 -0.000000 -0.000000 0.000000 0.000000 -0.000000 
